<svg id="Layer_1" data-name="Layer 1" xmlns="http://www.w3.org/2000/svg" viewBox="0 0 605.52 190.31"><defs><style>.cls-1,.cls-2{fill:#fff;}.cls-2{fill-rule:evenodd;}</style></defs><path class="cls-1" d="M382.93,95.12c-2.13,10.35-9,16.28-18.94,16.28-4.87,0-9.59-1.22-12.33-2.89l2.74-4.11a20,20,0,0,0,9.36,2.13c7.3,0,11.18-4.79,12.48-10.65l.68-2.82a18.4,18.4,0,0,1-8.29,1.75c-8.06,0-12.93-5.32-12.93-14.07a35.79,35.79,0,0,1,6.08-19.18,20.85,20.85,0,0,1,17.58-9.05c5.25,0,9.74,1.45,11.79,2.82Zm-4.18-38.58c-5.1,0-9.13,2.9-12,7.84a38,38,0,0,0-4.49,17c0,6,2.51,9.36,8.52,9.36a14.7,14.7,0,0,0,6.92-1.67l6.55-31.5A11,11,0,0,0,378.75,56.54Z" transform="translate(-51.31 -52.51)"/><path class="cls-1" d="M415.42,57.76c-3.81-.84-7.46-.69-9.51.53l-7.46,36h-6.7l8.07-38.88c3.27-1.6,8.67-2.89,15.29-2.89,1.07,0,1.9.07,2.9.15Z" transform="translate(-51.31 -52.51)"/><path class="cls-1" d="M443.64,92.15c-3,1.68-8.37,2.89-14.46,2.89-8.9,0-12.7-3.65-12.7-9.81a16.3,16.3,0,0,1,.38-3.65l5.85-28.31h6.7L423.48,81.8a12.23,12.23,0,0,0-.31,2.82c0,3.19,1.6,5.71,6.92,5.71a19.09,19.09,0,0,0,7.54-1.3L445,53.27h6.7Z" transform="translate(-51.31 -52.51)"/><path class="cls-1" d="M481.75,85.91c-4.11,5.78-9.89,9-16.89,9a20,20,0,0,1-6.31-1l-3.5,16.74h-6.63l11.5-55.24a29.3,29.3,0,0,1,13.16-2.89c9.51,0,14.61,5.56,14.61,14.53A35.21,35.21,0,0,1,481.75,85.91Zm-9.51-29.29a14.65,14.65,0,0,0-6.16,1.22l-6.7,32.1a11.65,11.65,0,0,0,4.65.76c5.39,0,9.73-2.74,12.7-7.68,2.74-4.49,4.42-11.49,4.42-16.81C481.15,60.19,478.63,56.62,472.24,56.62Z" transform="translate(-51.31 -52.51)"/><path class="cls-1" d="M520.25,85.91c-3.5,5.56-8.68,9.13-15.68,9.13-8.75,0-12.63-5.63-12.63-13.85a40.92,40.92,0,0,1,5.41-19.63c3.5-5.63,8.74-9.05,15.67-9.05,8.75,0,12.63,5.56,12.63,13.77A41.09,41.09,0,0,1,520.25,85.91Zm-7.69-29.14c-4.72,0-8,3.2-10.12,7.53a46.41,46.41,0,0,0-4,17.5c0,4.8,1.6,8.6,6.77,8.6,4.79,0,7.84-3.12,10-7.38a47.41,47.41,0,0,0,4.11-17.8C519.26,60.42,517.66,56.77,512.56,56.77Z" transform="translate(-51.31 -52.51)"/><path class="cls-2" d="M63.82,240.56H94.44l57.27-109.29H122.1l-29,62.87a124.26,124.26,0,0,0-6.31,16.62h-.38a102.61,102.61,0,0,0,1-16.62l-2.67-62.87H51.31L63.82,240.56Zm504.74-6.13a36.77,36.77,0,0,0,8.34,4.17,70.17,70.17,0,0,0,11.35,2.94,81,81,0,0,0,13.13,1.24,75.34,75.34,0,0,0,19.81-2.34,48,48,0,0,0,15.7-7.26,34.25,34.25,0,0,0,10.3-11.89,35.68,35.68,0,0,0,3.7-16.35,23.67,23.67,0,0,0-2.12-10.1,28.26,28.26,0,0,0-5.49-8,46.24,46.24,0,0,0-7.8-6.33,79.52,79.52,0,0,0-8.79-5,41.06,41.06,0,0,1-9.72-6.09c-2.17-2-3.28-4.08-3.28-6.24a8.06,8.06,0,0,1,3.82-7c2.49-1.65,6-2.48,10.28-2.48a47.23,47.23,0,0,1,8.65.75,55.14,55.14,0,0,1,7.26,1.78,44.58,44.58,0,0,1,5.44,2.08l7.68-22.44A43.53,43.53,0,0,0,645.67,132a77.9,77.9,0,0,0-16.57-1.68A66.69,66.69,0,0,0,610,133a45.54,45.54,0,0,0-15,7.53,34.14,34.14,0,0,0-9.8,11.75,34.65,34.65,0,0,0-3.5,15.28,24.07,24.07,0,0,0,3.18,12,33.71,33.71,0,0,0,8.11,9.44,62.32,62.32,0,0,0,11.4,7.17c4.86,2.36,8.36,4.63,10.39,6.74a9.87,9.87,0,0,1,3,7.13,8.22,8.22,0,0,1-1.53,4.84,10.3,10.3,0,0,1-4.55,3.52,20,20,0,0,1-7.55,1.32,47.39,47.39,0,0,1-10.47-1.25,77.76,77.76,0,0,1-9.78-2.91,74.83,74.83,0,0,1-7.7-3.33l-7.73,22.25Zm-76.08-12.61a29.57,29.57,0,0,1-10.79,1.91c-6.23,0-10.58-1.47-12.9-4.34a10.63,10.63,0,0,1-2-6.82,25.18,25.18,0,0,1,.61-5.27c3.48-15.64,15.24-20.19,33.21-22.05-.61,2.71-7.81,35.57-8.1,36.57Zm8.1-91.25a111.77,111.77,0,0,0-29.9,4.1l-.68.21-6.55,22.85,2-.78c6.3-2.34,15.82-5.1,25.16-5.1,6.93,0,11.26,1.26,13.35,3.87a7.69,7.69,0,0,1,1.63,5.12,17.19,17.19,0,0,1-.49,3.88l-.89,4.16c-28.39,2.65-61.43,9.59-67.86,39.14a33.62,33.62,0,0,0-1.09,8.55c0,5.77,1.54,10.69,4.75,14.57,6.23,7.77,18.42,11.68,36.37,11.68,17.43,0,32.94-2.83,43.76-8l.45-.24,14.13-63.88c2.83-12.75,1.5-22.62-3.85-29.38-5.73-7.16-15.91-10.71-30.31-10.71ZM236.27,221.82a29.47,29.47,0,0,1-10.78,1.91c-6.22,0-10.58-1.47-12.87-4.35a10.35,10.35,0,0,1-2.06-6.81,26.66,26.66,0,0,1,.62-5.28c3.48-15.63,15.23-20.18,33.21-22-.62,2.71-7.8,35.57-8.12,36.57Zm8.12-91.25a111.5,111.5,0,0,0-29.91,4.1l-.66.21-6.56,22.85,2-.79c6.31-2.33,15.81-5.09,25.17-5.09,6.94,0,11.26,1.26,13.37,3.87a7.82,7.82,0,0,1,1.6,5.1,18.47,18.47,0,0,1-.47,3.87l-.91,4.19c-28.37,2.63-61.42,9.59-67.86,39.12a34.3,34.3,0,0,0-1.08,8.57c0,5.77,1.53,10.69,4.73,14.57,6.24,7.77,18.44,11.68,36.38,11.68,17.46,0,32.94-2.83,43.76-8l.45-.24,14.14-63.88c2.83-12.75,1.49-22.62-3.84-29.38-5.74-7.16-15.93-10.71-30.32-10.71Zm189.68,10.48c-5.48-6.83-15-10.48-27.41-10.48-14.84,0-27.42,3.49-37.26,10.3-6.13-6.85-16.44-10.3-31.54-10.3-17.88,0-31.37,2.35-45,8l-.61.14L269.72,240.83h32.86l19.27-87a34.75,34.75,0,0,1,12-1.81c5.15,0,9,1.38,11,3.93,1.71,2.18,2.24,5.25,1.4,8.78l-16.78,76.14h32.86l18.6-84.09A20.77,20.77,0,0,1,394.49,152c4.56,0,7.81,1.26,9.7,3.6s2.27,5.49,1.45,9.52l-16.81,75.73h33l16.61-75.31c2.14-9.7.64-18.19-4.36-24.47ZM569,114.2c9.34,0,18.18-6.51,19.92-14.8,1.66-8.11-4.46-14.8-13.79-14.8s-18.2,6.69-19.87,14.8c-1.73,8.29,4.45,14.8,13.74,14.8Zm12.38,16.64H549.7l-22.55,109.3h31.63l22.55-109.3Zm-403.94-16.2c9.36,0,18.18-6.49,19.9-14.81C199,91.74,192.87,85,183.5,85s-18.19,6.71-19.87,14.8c-1.71,8.32,4.44,14.81,13.76,14.81Zm12.4,16.63H158.14L135.58,240.56H167.2l22.59-109.29Z" transform="translate(-51.31 -52.51)"/></svg>